# xmcd
#
# Track frame offsets:
#  150
#  23371
#  42718
#  60816
#  78535
#  99644
#  118596
#  135346
#  153504
#  173335
#  194532
#  210314
#  235384
#  254951
#  272670
#  292061
#  334352
#
# Disc length: 4765 seconds
#
# Revision: 0
# Processed by: cddbd v1.5.2PL0 Copyright (c) Steve Scherf et al.
# Submitted via: Collectorz.com_Music_Collector 6.11
#
DISCID=f3129b11
DTITLE=Joe Cocker - Greatest Hits
DYEAR=1900
DGENRE=Blues
TTITLE0=01 Unchain My Heart (90's Version - 01 Unchain My Heart (90's Version)
TTITLE1=02 You Can Leave Your Hat On - 02 You Can Leave Your Hat On
TTITLE2=03 When The Night Comes - 03 When The Night Comes
TTITLE3=04 Up Where We Belong (with Jennifer Warnes - 04 Up Where We Belong (with Jennifer Warnes)
TTITLE4=05 Now That The Magic Has Gone - 05 Now That The Magic Has Gone
TTITLE5=06 Don - t You Love Me Anymore
TTITLE6=07 I Can Hear The River - 07 I Can Hear The River
TTITLE7=08 Sorry Seems To Be The Hardest Word - 08 Sorry Seems To Be The Hardest Word
TTITLE8=09 Shelter Me - 09 Shelter Me
TTITLE9=10 (All I Know - Feels Like Forever
TTITLE10=11 Night Calls - 11 Night Calls
TTITLE11=12 Don - t Let The Sun Go Down On Me
TTITLE12=13 Now That You - re Gone
TTITLE13=14 Civilized Man - 14 Civilized Man
TTITLE14=15 When A Woman Cries - 15 When A Woman Cries
TTITLE15=16 With A Little Help From My Friends (Live - 16 With A Little Help From My Friends (Live)
TTITLE16=01 Unchain My Heart (90's Version - 01 Unchain My Heart (90's Version)
EXTD=
EXTT0=
EXTT1=
EXTT2=
EXTT3=
EXTT4=
EXTT5=
EXTT6=
EXTT7=
EXTT8=
EXTT9=
EXTT10=
EXTT11=
EXTT12=
EXTT13=
EXTT14=
EXTT15=
EXTT16=
PLAYORDER=
